<svg width="66" height="46" viewBox="0 0 66 46" fill="none" xmlns="http://www.w3.org/2000/svg">
<path d="M3.40625 0.1875C4.73958 0.229167 5.90625 0.25 6.90625 0.25C7.90625 0.208333 8.71875 0.1875 9.34375 0.1875H11.1562C11.6146 0.145833 12.1771 0.125 12.8438 0.125C13.4271 0.125 14.1354 0.125 14.9688 0.125C15.8021 0.125 16.7604 0.145833 17.8438 0.1875C18.1771 1.35417 18.5521 2.5 18.9688 3.625C19.4271 4.70833 19.8229 5.6875 20.1562 6.5625C20.5729 7.60417 20.9896 8.58333 21.4062 9.5C21.8229 10.4167 22.3229 11.5208 22.9062 12.8125C23.4062 13.8958 24.0104 15.2292 24.7188 16.8125C25.4271 18.3542 26.2604 20.125 27.2188 22.125C27.6771 20.8333 28.0938 19.6458 28.4688 18.5625C28.8854 17.4792 29.2396 16.5417 29.5312 15.75C29.8646 14.8333 30.1354 14 30.3438 13.25C30.5521 12.5 30.7812 11.5833 31.0312 10.5C31.2396 9.58333 31.4688 8.47917 31.7188 7.1875C32.0104 5.89583 32.3021 4.39583 32.5938 2.6875C33.8021 2.6875 34.8854 2.6875 35.8438 2.6875C36.8021 2.6875 37.6354 2.66667 38.3438 2.625C39.1354 2.625 39.8438 2.60417 40.4688 2.5625C41.1354 2.5625 42.0312 2.52083 43.1562 2.4375C44.1146 2.35417 45.3854 2.29167 46.9688 2.25C48.5938 2.16667 50.5938 2.0625 52.9688 1.9375C52.0938 2.5625 51.3854 3.1875 50.8438 3.8125C50.3438 4.39583 49.9479 4.91667 49.6562 5.375C49.3229 5.91667 49.1146 6.4375 49.0312 6.9375C48.9479 7.35417 48.8646 8.3125 48.7812 9.8125C48.7396 11.3125 48.6771 13.1042 48.5938 15.1875C48.5521 17.2292 48.5104 19.4167 48.4688 21.75C48.4688 24.0833 48.4896 26.2917 48.5312 28.375C48.5729 30.4583 48.6354 32.2708 48.7188 33.8125C48.8438 35.3125 49.0104 36.2708 49.2188 36.6875C49.5104 37.1875 49.9062 37.7708 50.4062 38.4375C50.8646 39.0208 51.4479 39.6875 52.1562 40.4375C52.9062 41.1875 53.8854 42.0208 55.0938 42.9375C53.1771 43.0208 51.5729 43.0833 50.2812 43.125C49.0312 43.1667 47.9896 43.2083 47.1562 43.25C46.1979 43.2917 45.4271 43.3125 44.8438 43.3125C44.2188 43.3125 43.3646 43.3333 42.2812 43.375C41.3229 43.4167 40.0521 43.4792 38.4688 43.5625C36.8854 43.6042 34.8438 43.6875 32.3438 43.8125C32.9271 43.1458 33.4688 42.4792 33.9688 41.8125C34.4688 41.1458 34.8854 40.5417 35.2188 40C35.6354 39.375 35.9896 38.7708 36.2812 38.1875C36.5729 37.3958 36.8021 35.9583 36.9688 33.875C37.1354 32.0833 37.2604 29.5208 37.3438 26.1875C37.4271 22.8125 37.4271 18.2917 37.3438 12.625C36.5521 13.9167 35.8438 15.2083 35.2188 16.5C34.6354 17.75 34.1146 18.8958 33.6562 19.9375C33.1562 21.1458 32.6979 22.3125 32.2812 23.4375C31.8646 24.6042 31.4271 25.8958 30.9688 27.3125C30.5521 28.5208 30.0521 29.9583 29.4688 31.625C28.9271 33.2917 28.3021 35.125 27.5938 37.125L25.2188 37.25C24.8854 35.5833 24.5521 34.0833 24.2188 32.75C23.8854 31.375 23.5521 30.2083 23.2188 29.25C22.8438 28.125 22.4688 27.125 22.0938 26.25C21.6771 25.375 21.2188 24.3958 20.7188 23.3125C20.2604 22.3958 19.6979 21.3125 19.0312 20.0625C18.4062 18.8125 17.6771 17.4167 16.8438 15.875C16.4271 20.125 16.1771 23.5833 16.0938 26.25C16.0104 28.875 16.0104 30.9167 16.0938 32.375C16.1771 34.125 16.3021 35.3958 16.4688 36.1875C16.7188 36.8958 17.1146 37.6875 17.6562 38.5625C18.1146 39.3125 18.7396 40.2083 19.5312 41.25C20.3646 42.25 21.4271 43.375 22.7188 44.625C21.8021 44.625 20.8438 44.625 19.8438 44.625C18.8438 44.625 17.9271 44.6458 17.0938 44.6875C16.0938 44.7292 15.1146 44.75 14.1562 44.75C13.1562 44.7917 11.9896 44.8542 10.6562 44.9375C9.48958 45.0208 8.09375 45.1042 6.46875 45.1875C4.84375 45.2708 2.96875 45.4167 0.84375 45.625C1.76042 45.0417 2.51042 44.4792 3.09375 43.9375C3.67708 43.3542 4.13542 42.8333 4.46875 42.375C4.88542 41.8333 5.19792 41.2917 5.40625 40.75C5.53125 40.4167 5.63542 39.6875 5.71875 38.5625C5.84375 37.4375 5.94792 36.0625 6.03125 34.4375C6.15625 32.8125 6.23958 31 6.28125 29C6.36458 27 6.42708 24.9792 6.46875 22.9375C6.55208 20.8542 6.61458 18.8333 6.65625 16.875C6.69792 14.875 6.71875 13.0833 6.71875 11.5C6.76042 9.875 6.78125 8.52083 6.78125 7.4375C6.78125 6.35417 6.78125 5.66667 6.78125 5.375C6.65625 4.75 6.46875 4.125 6.21875 3.5C6.01042 2.95833 5.67708 2.39583 5.21875 1.8125C4.76042 1.22917 4.15625 0.6875 3.40625 0.1875ZM60.9688 38.125C62.4688 37.9167 63.6354 38.1667 64.4688 38.875C65.3438 39.5833 65.7604 40.5625 65.7188 41.8125C65.6771 42.4375 65.5521 42.9375 65.3438 43.3125C65.1354 43.6875 64.8438 43.9792 64.4688 44.1875C64.1354 44.3542 63.7188 44.5 63.2188 44.625C62.7604 44.7083 62.2188 44.7917 61.5938 44.875C60.9688 45 60.3646 44.9792 59.7812 44.8125C59.1979 44.6042 58.6771 44.3125 58.2188 43.9375C57.7604 43.5625 57.3854 43.1458 57.0938 42.6875C56.8438 42.2292 56.7188 41.7708 56.7188 41.3125C56.7188 40.8125 56.8438 40.3958 57.0938 40.0625C57.3854 39.6875 57.7396 39.375 58.1562 39.125C58.6146 38.8333 59.0729 38.625 59.5312 38.5C60.0312 38.3333 60.5104 38.2083 60.9688 38.125Z" fill="black"/>
</svg>
